<svg viewBox="0 0 100 80" xmlns="http://www.w3.org/2000/svg">
  <!-- Creative Light/Growth Symbol -->
  <g transform="translate(30, 10)">
    <!-- Central radiant core -->
    <circle cx="20" cy="30" r="8" fill="url(#coreGradient)" opacity="0.9"/>
    
    <!-- Organic light rays/branches -->
    <g stroke-linecap="round" fill="none">
      <!-- Main rays -->
      <path d="M20 22 Q15 15 10 12 Q12 10 18 18" stroke="url(#rayGradient)" stroke-width="3"/>
      <path d="M20 22 Q25 15 30 12 Q28 10 22 18" stroke="url(#rayGradient)" stroke-width="3"/>
      <path d="M28 30 Q35 25 40 22 Q38 20 30 28" stroke="url(#rayGradient)" stroke-width="3"/>
      <path d="M28 30 Q35 35 40 38 Q38 40 30 32" stroke="url(#rayGradient)" stroke-width="3"/>
      <path d="M20 38 Q25 45 30 48 Q28 50 22 42" stroke="url(#rayGradient)" stroke-width="3"/>
      <path d="M20 38 Q15 45 10 48 Q12 50 18 42" stroke="url(#rayGradient)" stroke-width="3"/>
      <path d="M12 30 Q5 25 0 22 Q2 20 10 28" stroke="url(#rayGradient)" stroke-width="3"/>
      <path d="M12 30 Q5 35 0 38 Q2 40 10 32" stroke="url(#rayGradient)" stroke-width="3"/>
      
      <!-- Secondary delicate rays -->
      <path d="M20 22 Q18 10 16 5" stroke="#059669" stroke-width="1.5" opacity="0.7"/>
      <path d="M20 22 Q22 10 24 5" stroke="#059669" stroke-width="1.5" opacity="0.7"/>
      <path d="M28 30 Q40 28 45 26" stroke="#059669" stroke-width="1.5" opacity="0.7"/>
      <path d="M28 30 Q40 32 45 34" stroke="#059669" stroke-width="1.5" opacity="0.7"/>
      <path d="M20 38 Q22 50 24 55" stroke="#059669" stroke-width="1.5" opacity="0.7"/>
      <path d="M20 38 Q18 50 16 55" stroke="#059669" stroke-width="1.5" opacity="0.7"/>
      <path d="M12 30 Q0 32 -5 34" stroke="#059669" stroke-width="1.5" opacity="0.7"/>
      <path d="M12 30 Q0 28 -5 26" stroke="#059669" stroke-width="1.5" opacity="0.7"/>
    </g>
    
    <!-- Floating light particles -->
    <circle cx="8" cy="20" r="1.5" fill="#059669" opacity="0.8"/>
    <circle cx="32" cy="18" r="1" fill="#047857" opacity="0.7"/>
    <circle cx="35" cy="42" r="1.5" fill="#059669" opacity="0.6"/>
    <circle cx="5" cy="40" r="1" fill="#047857" opacity="0.8"/>
    <circle cx="25" cy="50" r="1" fill="#059669" opacity="0.7"/>
    <circle cx="15" cy="8" r="1" fill="#047857" opacity="0.6"/>
    
    <!-- Inner energy rings -->
    <circle cx="20" cy="30" r="12" stroke="url(#ringGradient)" stroke-width="1" fill="none" opacity="0.4"/>
    <circle cx="20" cy="30" r="16" stroke="url(#ringGradient)" stroke-width="0.5" fill="none" opacity="0.2"/>
  </g>
  
  <!-- Gradient Definitions -->
  <defs>
    <radialGradient id="coreGradient" cx="50%" cy="50%" r="50%">
      <stop offset="0%" style="stop-color:#059669"/>
      <stop offset="40%" style="stop-color:#047857"/>
      <stop offset="100%" style="stop-color:#065f46"/>
    </radialGradient>
    
    <linearGradient id="rayGradient" x1="0%" y1="0%" x2="100%" y2="100%">
      <stop offset="0%" style="stop-color:#059669"/>
      <stop offset="50%" style="stop-color:#047857"/>
      <stop offset="100%" style="stop-color:#065f46"/>
    </linearGradient>
    
    <linearGradient id="ringGradient" x1="0%" y1="0%" x2="100%" y2="0%">
      <stop offset="0%" style="stop-color:#047857"/>
      <stop offset="100%" style="stop-color:#059669"/>
    </linearGradient>
  </defs>
</svg>